<svg preserveAspectRatio="none" width="100%" height="100%" overflow="visible" style="display: block;" viewBox="0 0 37 44" fill="none" xmlns="http://www.w3.org/2000/svg">
<g id="Frame 1953">
<path id="Star 4" d="M21.7654 11.7553C22.3359 9.4149 25.6641 9.4149 26.2346 11.7553C26.603 13.2668 28.3347 13.9841 29.664 13.1758C31.7223 11.9243 34.0757 14.2777 32.8242 16.336C32.0159 17.6653 32.7332 19.397 34.2447 19.7654C36.5851 20.3359 36.5851 23.6641 34.2447 24.2346C32.7332 24.603 32.0159 26.3347 32.8242 27.664C34.0757 29.7223 31.7223 32.0757 29.664 30.8242C28.3347 30.0159 26.603 30.7332 26.2346 32.2447C25.6641 34.5851 22.3359 34.5851 21.7654 32.2447C21.397 30.7332 19.6653 30.0159 18.336 30.8242C16.2777 32.0757 13.9243 29.7223 15.1758 27.664C15.9841 26.3347 15.2668 24.603 13.7553 24.2346C11.4149 23.6641 11.4149 20.3359 13.7553 19.7654C15.2668 19.397 15.9841 17.6653 15.1758 16.336C13.9243 14.2777 16.2777 11.9243 18.336 13.1758C19.6653 13.9841 21.397 13.2668 21.7654 11.7553Z" stroke="var(--stroke-0, black)" stroke-width="2" stroke-linejoin="round"/>
</g>
</svg>
