<svg preserveAspectRatio="none" width="100%" height="100%" overflow="visible" style="display: block;" viewBox="0 0 37 44" fill="none" xmlns="http://www.w3.org/2000/svg">
<g id="Frame 1956">
<path id="Star 3" d="M24 10L24.2545 15.9698C24.3373 17.9118 26.6523 18.8707 28.0841 17.556L32.4853 13.5147L28.444 17.9159C27.1293 19.3477 28.0882 21.6627 30.0302 21.7455L36 22L30.0302 22.2545C28.0882 22.3373 27.1293 24.6523 28.444 26.0841L32.4853 30.4853L28.0841 26.444C26.6523 25.1293 24.3373 26.0882 24.2545 28.0302L24 34L23.7455 28.0302C23.6627 26.0882 21.3477 25.1293 19.9159 26.444L15.5147 30.4853L19.556 26.0841C20.8707 24.6523 19.9118 22.3373 17.9698 22.2545L12 22L17.9698 21.7455C19.9118 21.6627 20.8707 19.3477 19.556 17.9159L15.5147 13.5147L19.9159 17.556C21.3477 18.8707 23.6627 17.9118 23.7455 15.9698L24 10Z" stroke="var(--stroke-0, black)" stroke-width="2" stroke-linejoin="round"/>
</g>
</svg>
