<svg preserveAspectRatio="none" width="100%" height="100%" overflow="visible" style="display: block;" viewBox="0 0 40 40" fill="none" xmlns="http://www.w3.org/2000/svg">
<g id="Frame 1935">
<rect x="1" y="1" width="38" height="38" rx="9" fill="var(--fill-0, black)"/>
<rect x="1" y="1" width="38" height="38" rx="9" stroke="var(--stroke-0, black)" stroke-width="2"/>
<path id="Star 5" d="M18.6775 30.9963C19.0937 32.3346 20.9063 32.3346 21.3225 30.9963L22.966 25.7127C23.1521 25.1142 23.686 24.709 24.2885 24.709H29.6067C30.9538 24.709 31.5139 22.9083 30.4241 22.0812L26.1216 18.8157C25.6342 18.4458 25.4302 17.7902 25.6164 17.1917L27.2598 11.9081C27.6761 10.5698 26.2098 9.45689 25.1199 10.284L20.8174 13.5494C20.33 13.9193 19.67 13.9193 19.1826 13.5494L14.8801 10.284C13.7902 9.45689 12.3239 10.5698 12.7402 11.9081L14.3836 17.1917C14.5698 17.7902 14.3658 18.4458 13.8784 18.8157L9.57589 22.0812C8.48606 22.9083 9.04616 24.709 10.3933 24.709H15.7115C16.314 24.709 16.8479 25.1142 17.034 25.7127L18.6775 30.9963Z" fill="var(--fill-0, white)" stroke="var(--stroke-0, white)" stroke-width="2" stroke-linejoin="round"/>
</g>
</svg>
