<svg preserveAspectRatio="none" width="100%" height="100%" overflow="visible" style="display: block;" viewBox="0 0 38 44" fill="none" xmlns="http://www.w3.org/2000/svg">
<g id="Frame 1951">
<path id="Vector 484" d="M1 14V30" stroke="var(--stroke-0, black)" stroke-width="2"/>
<path id="Star 2" d="M23.8705 10.2894C24.5741 9.90352 25.4259 9.90352 26.1295 10.2894L28.9364 11.8291C29.0862 11.9112 29.2445 11.9768 29.4085 12.0246L32.482 12.9207C33.2523 13.1453 33.8547 13.7477 34.0793 14.518L34.9754 17.5915C35.0232 17.7555 35.0888 17.9138 35.1709 18.0636L36.7106 20.8705C37.0965 21.5741 37.0965 22.4259 36.7106 23.1295L35.1709 25.9364C35.0888 26.0862 35.0232 26.2445 34.9754 26.4085L34.0793 29.482C33.8547 30.2523 33.2523 30.8547 32.482 31.0793L29.4085 31.9754C29.2445 32.0232 29.0862 32.0888 28.9364 32.1709L26.1295 33.7106C25.4259 34.0965 24.5741 34.0965 23.8705 33.7106L21.0636 32.1709C20.9138 32.0888 20.7555 32.0232 20.5915 31.9754L17.518 31.0793C16.7477 30.8547 16.1453 30.2523 15.9207 29.482L15.0246 26.4085C14.9768 26.2445 14.9112 26.0862 14.8291 25.9364L13.2894 23.1295C12.9035 22.4259 12.9035 21.5741 13.2894 20.8705L14.8291 18.0636C14.9112 17.9138 14.9768 17.7555 15.0246 17.5915L15.9207 14.518C16.1453 13.7477 16.7477 13.1453 17.518 12.9207L20.5915 12.0246C20.7555 11.9768 20.9138 11.9112 21.0636 11.8291L23.8705 10.2894Z" stroke="var(--stroke-0, black)" stroke-width="2" stroke-linejoin="round"/>
</g>
</svg>
