<svg preserveAspectRatio="none" width="100%" height="100%" overflow="visible" style="display: block;" viewBox="0 0 37 43" fill="none" xmlns="http://www.w3.org/2000/svg">
<g id="Frame 1950">
<path id="Star 1" d="M22.5572 11.0482C23.0114 9.65059 24.9886 9.65059 25.4428 11.0482L27.2356 16.566C27.4387 17.191 28.0211 17.6142 28.6783 17.6142H34.4801C35.9496 17.6142 36.5607 19.4947 35.3718 20.3585L30.6781 23.7687C30.1464 24.155 29.9239 24.8397 30.127 25.4648L31.9198 30.9825C32.3739 32.3802 30.7743 33.5424 29.5854 32.6786L24.8917 29.2684C24.36 28.8821 23.64 28.8821 23.1083 29.2684L18.4146 32.6786C17.2257 33.5424 15.6261 32.3802 16.0802 30.9825L17.873 25.4648C18.0761 24.8397 17.8536 24.155 17.3219 23.7687L12.6282 20.3585C11.4393 19.4947 12.0504 17.6142 13.5199 17.6142H19.3216C19.9789 17.6142 20.5613 17.191 20.7644 16.566L22.5572 11.0482Z" fill="var(--fill-0, black)" stroke="var(--stroke-0, black)" stroke-width="2" stroke-linejoin="round"/>
</g>
</svg>
